<svg width="47" height="47" viewBox="0 0 47 47" fill="none" xmlns="http://www.w3.org/2000/svg">
<path d="M25.5767 4.40596C25.0259 3.85526 24.2788 3.5459 23.4999 3.5459C22.721 3.5459 21.974 3.85526 21.4231 4.40596L1.89753 23.9286C1.76097 24.0651 1.65264 24.2273 1.57874 24.4057C1.50484 24.5841 1.4668 24.7753 1.4668 24.9685C1.4668 25.1616 1.50484 25.3528 1.57874 25.5312C1.65264 25.7097 1.76097 25.8718 1.89753 26.0083C2.17332 26.2841 2.54737 26.4391 2.9374 26.4391C3.13052 26.4391 3.32176 26.401 3.50018 26.3271C3.6786 26.2532 3.84072 26.1449 3.97728 26.0083L23.4999 6.48277L43.0225 26.0083C43.2983 26.2841 43.6724 26.4391 44.0624 26.4391C44.4524 26.4391 44.8265 26.2841 45.1023 26.0083C45.3781 25.7325 45.533 25.3585 45.533 24.9685C45.533 24.5784 45.3781 24.2044 45.1023 23.9286L38.1874 17.0166V7.34346C38.1874 6.95392 38.0327 6.58034 37.7572 6.3049C37.4818 6.02945 37.1082 5.87471 36.7187 5.87471H33.7812C33.3916 5.87471 33.018 6.02945 32.7426 6.3049C32.4671 6.58034 32.3124 6.95392 32.3124 7.34346V11.1416L25.5767 4.40596Z" fill="#FB5304"/>
<path d="M23.5 9.67285L41.125 27.2979V39.6559C41.125 40.8245 40.6608 41.9453 39.8344 42.7716C39.0081 43.5979 37.8874 44.0622 36.7188 44.0622H10.2812C9.11264 44.0622 7.99189 43.5979 7.16556 42.7716C6.33923 41.9453 5.875 40.8245 5.875 39.6559V27.2979L23.5 9.67285Z" fill="#FB5304"/>
</svg>
