<svg width="47" height="47" viewBox="0 0 47 47" fill="none" xmlns="http://www.w3.org/2000/svg">
<path d="M40.6788 19.8866L37.9998 11.8496C37.6112 10.6794 36.8637 9.6615 35.8635 8.94046C34.8633 8.21942 33.6614 7.83191 32.4284 7.83301H14.5723C13.3393 7.83191 12.1373 8.21942 11.1371 8.94046C10.137 9.6615 9.38945 10.6794 9.00083 11.8496L6.32183 19.8866C5.60943 20.1846 5.00105 20.6867 4.57316 21.3295C4.14528 21.9724 3.91699 22.7274 3.91699 23.4997V33.2913C3.91699 34.7366 4.70816 35.986 5.87533 36.6656V41.1247C5.87533 41.6441 6.08165 42.1422 6.44891 42.5094C6.81617 42.8767 7.31428 43.083 7.83366 43.083H9.79199C10.3114 43.083 10.8095 42.8767 11.1767 42.5094C11.544 42.1422 11.7503 41.6441 11.7503 41.1247V37.208H35.2503V41.1247C35.2503 41.6441 35.4566 42.1422 35.8239 42.5094C36.1912 42.8767 36.6893 43.083 37.2087 43.083H39.167C39.6864 43.083 40.1845 42.8767 40.5517 42.5094C40.919 42.1422 41.1253 41.6441 41.1253 41.1247V36.6656C41.7195 36.3248 42.2133 35.8335 42.5571 35.2411C42.9009 34.6488 43.0825 33.9763 43.0837 33.2913V23.4997C43.0837 22.7274 42.8554 21.9724 42.4275 21.3295C41.9996 20.6867 41.3912 20.1846 40.6788 19.8866ZM14.5723 11.7497H32.4264C33.2705 11.7497 34.0185 12.2863 34.2849 13.0892L36.4508 19.583H10.5499L12.7138 13.0892C12.8438 12.6991 13.0932 12.3597 13.4268 12.1193C13.7603 11.8789 14.1611 11.7496 14.5723 11.7497ZM10.7712 31.333C10.3853 31.3329 10.0032 31.2567 9.64673 31.109C9.29026 30.9612 8.9664 30.7446 8.69363 30.4717C8.42086 30.1987 8.20452 29.8747 8.05696 29.5181C7.90941 29.1616 7.83353 28.7794 7.83366 28.3936C7.83379 28.0077 7.90992 27.6256 8.05771 27.2691C8.2055 26.9127 8.42206 26.5888 8.69501 26.316C8.96797 26.0432 9.29197 25.8269 9.64854 25.6794C10.0051 25.5318 10.3872 25.4559 10.7731 25.4561C11.5525 25.4563 12.2998 25.7661 12.8506 26.3174C13.4015 26.8687 13.7109 27.6162 13.7106 28.3955C13.7104 29.1748 13.4005 29.9222 12.8493 30.473C12.298 31.0239 11.5505 31.3333 10.7712 31.333ZM36.2295 31.333C35.8436 31.3329 35.4615 31.2567 35.1051 31.109C34.7486 30.9612 34.4247 30.7446 34.152 30.4717C33.8792 30.1987 33.6628 29.8747 33.5153 29.5181C33.3677 29.1616 33.2919 28.7794 33.292 28.3936C33.2921 28.0077 33.3683 27.6256 33.516 27.2691C33.6638 26.9127 33.8804 26.5888 34.1533 26.316C34.4263 26.0432 34.7503 25.8269 35.1069 25.6794C35.4634 25.5318 35.8456 25.4559 36.2314 25.4561C37.0108 25.4563 37.7581 25.7661 38.309 26.3174C38.8599 26.8687 39.1692 27.6162 39.1689 28.3955C39.1687 29.1748 38.8589 29.9222 38.3076 30.473C37.7563 31.0239 37.0088 31.3333 36.2295 31.333Z" fill="#FB5304"/>
</svg>
