<svg width="32" height="28" viewBox="0 0 32 28" fill="none" xmlns="http://www.w3.org/2000/svg">
<rect width="32" height="28" rx="5" fill="#FFFDFD" fill-opacity="0.93"/>
<path d="M15.5 10.667C15.5 10.667 15.5 10.667 14.9617 9.95866C14.3383 9.13699 13.4175 8.54199 12.3125 8.54199C10.5487 8.54199 9.125 9.96574 9.125 11.7295C9.125 12.3882 9.32333 12.9974 9.66333 13.5003C10.2371 14.3574 15.5 19.8753 15.5 19.8753M15.5 10.667C15.5 10.667 15.5 10.667 16.0383 9.95866C16.6617 9.13699 17.5825 8.54199 18.6875 8.54199C20.4512 8.54199 21.875 9.96574 21.875 11.7295C21.875 12.3882 21.6767 12.9974 21.3367 13.5003C20.7629 14.3574 15.5 19.8753 15.5 19.8753" stroke="black" stroke-width="2" stroke-linecap="round" stroke-linejoin="round"/>
</svg>
