<svg width="22" height="21" viewBox="0 0 22 21" fill="none" xmlns="http://www.w3.org/2000/svg">
<path d="M10.6678 2.0625C9.17781 2.0625 7.74885 2.61958 6.69528 3.61118C5.6417 4.60278 5.0498 5.94768 5.0498 7.35002C5.0498 8.60052 5.33258 9.4192 6.10318 10.3242L10.6678 15.2813L15.2324 10.3242C16.003 9.4192 16.2858 8.60052 16.2858 7.35002C16.2858 5.94768 15.6939 4.60278 14.6403 3.61118C13.5867 2.61958 12.1578 2.0625 10.6678 2.0625Z" stroke="#494B75" stroke-width="2.20313" stroke-linecap="round" stroke-linejoin="round"/>
<path d="M4.11368 13.6445C2.38053 14.2852 1.30469 15.1761 1.30469 16.1623C1.30469 18.1098 5.49664 19.6873 10.668 19.6873C15.8394 19.6873 20.0313 18.1098 20.0313 16.1623C20.0313 15.1761 18.9555 14.2852 17.2223 13.6445" stroke="#494B75" stroke-width="2.20313" stroke-linecap="round" stroke-linejoin="round"/>
<path d="M10.6688 8.23223C11.1859 8.23223 11.6051 7.83768 11.6051 7.35098C11.6051 6.86428 11.1859 6.46973 10.6688 6.46973C10.1516 6.46973 9.73242 6.86428 9.73242 7.35098C9.73242 7.83768 10.1516 8.23223 10.6688 8.23223Z" stroke="#494B75" stroke-width="2.20313" stroke-linecap="round" stroke-linejoin="round"/>
</svg>
