<svg width="47" height="47" viewBox="0 0 47 47" fill="none" xmlns="http://www.w3.org/2000/svg">
<path d="M39.6562 20.5625V8.8125C39.6562 8.42296 39.5015 8.04938 39.2261 7.77394C38.9506 7.49849 38.577 7.34375 38.1875 7.34375H8.8125C8.42296 7.34375 8.04938 7.49849 7.77394 7.77394C7.49849 8.04938 7.34375 8.42296 7.34375 8.8125V20.5625C6.17514 20.5625 5.05439 21.0267 4.22806 21.8531C3.40173 22.6794 2.9375 23.8001 2.9375 24.9688V39.6562H6.24219V36.7188H40.7578V39.6562H44.0625V24.9688C44.0625 23.8001 43.5983 22.6794 42.7719 21.8531C41.9456 21.0267 40.8249 20.5625 39.6562 20.5625ZM22.0312 20.5625H11.0156V17.625C11.0156 17.2355 11.1704 16.8619 11.4458 16.5864C11.7213 16.311 12.0948 16.1562 12.4844 16.1562H20.5625C20.952 16.1562 21.3256 16.311 21.6011 16.5864C21.8765 16.8619 22.0312 17.2355 22.0312 17.625V20.5625ZM24.9688 17.625C24.9688 17.2355 25.1235 16.8619 25.3989 16.5864C25.6744 16.311 26.048 16.1562 26.4375 16.1562H34.5156C34.9052 16.1562 35.2787 16.311 35.5542 16.5864C35.8296 16.8619 35.9844 17.2355 35.9844 17.625V20.5625H24.9688V17.625Z" fill="#FB5304"/>
</svg>
