<svg width="47" height="47" viewBox="0 0 47 47" fill="none" xmlns="http://www.w3.org/2000/svg">
<path d="M39.1663 27.4167V23.5H7.83301V27.4167C7.83301 29.6453 8.97472 33.7773 13.2086 34.9386C13.9332 35.1384 14.7498 35.25 15.6663 35.25H31.333C32.1625 35.2574 32.9893 35.1527 33.7907 34.9386C38.0246 33.7773 39.1663 29.6453 39.1663 27.4167Z" fill="#FB5304"/>
<path d="M5.875 23.4997H7.83333M7.83333 23.4997H39.1667M7.83333 23.4997V27.4163C7.83333 29.6449 8.97504 33.777 13.209 34.9383M39.1667 23.4997C39.686 23.4997 40.1842 23.2934 40.5514 22.9261C40.9187 22.5588 41.125 22.0607 41.125 21.5413V13.708C41.125 11.7497 39.95 7.83301 35.25 7.83301C30.55 7.83301 29.375 11.7497 29.375 13.708M39.1667 23.4997V27.4163C39.1667 29.6449 38.025 33.777 33.791 34.9383M29.375 13.708H25.4583M29.375 13.708H33.2917M33.791 34.9383C32.9896 35.1524 32.1629 35.2571 31.3333 35.2497H15.6667C14.7502 35.2497 13.9335 35.138 13.209 34.9383M33.791 34.9383L35.25 39.1663M13.209 34.9383L11.75 39.1663" stroke="#FB5304" stroke-width="2" stroke-linecap="round" stroke-linejoin="round"/>
</svg>
