<svg width="46" height="42" viewBox="0 0 46 42" fill="none" xmlns="http://www.w3.org/2000/svg">
<ellipse cx="23" cy="21" rx="23" ry="21" fill="#FB5304"/>
<path d="M26 30V22C26 21.7348 25.8946 21.4804 25.7071 21.2929C25.5196 21.1054 25.2652 21 25 21H21C20.7348 21 20.4804 21.1054 20.2929 21.2929C20.1054 21.4804 20 21.7348 20 22V30" stroke="white" stroke-width="2" stroke-linecap="round" stroke-linejoin="round"/>
<path d="M14 19.0005C13.9999 18.7095 14.0633 18.4221 14.1858 18.1582C14.3082 17.8943 14.4868 17.6603 14.709 17.4725L21.709 11.4725C22.07 11.1674 22.5274 11 23 11C23.4726 11 23.93 11.1674 24.291 11.4725L31.291 17.4725C31.5132 17.6603 31.6918 17.8943 31.8142 18.1582C31.9367 18.4221 32.0001 18.7095 32 19.0005V28.0005C32 28.5309 31.7893 29.0396 31.4142 29.4147C31.0391 29.7898 30.5304 30.0005 30 30.0005H16C15.4696 30.0005 14.9609 29.7898 14.5858 29.4147C14.2107 29.0396 14 28.5309 14 28.0005V19.0005Z" stroke="white" stroke-width="2" stroke-linecap="round" stroke-linejoin="round"/>
</svg>
