<svg width="53" height="50" viewBox="0 0 53 50" fill="none" xmlns="http://www.w3.org/2000/svg">
<mask id="mask0_1619_1865" style="mask-type:alpha" maskUnits="userSpaceOnUse" x="0" y="0" width="53" height="50">
<rect width="52.7855" height="50" rx="8" fill="#5C5E84"/>
</mask>
<g mask="url(#mask0_1619_1865)">
<rect x="-27.4482" y="27" width="52.7855" height="50" rx="8" fill="#FCD980"/>
<rect x="8.44531" y="-9" width="52.7855" height="50" rx="8" fill="#FB5304"/>
</g>
<path d="M16.9159 24.268C16.9159 22.192 17.2639 20.572 17.9599 19.408C18.6679 18.232 19.8799 17.644 21.5959 17.644C23.3119 17.644 24.5179 18.232 25.2139 19.408C25.9219 20.572 26.2759 22.192 26.2759 24.268C26.2759 26.368 25.9219 28.012 25.2139 29.2C24.5179 30.376 23.3119 30.964 21.5959 30.964C19.8799 30.964 18.6679 30.376 17.9599 29.2C17.2639 28.012 16.9159 26.368 16.9159 24.268ZM24.2599 24.268C24.2599 23.296 24.1939 22.474 24.0619 21.802C23.9419 21.13 23.6899 20.584 23.3059 20.164C22.9219 19.732 22.3519 19.516 21.5959 19.516C20.8399 19.516 20.2699 19.732 19.8859 20.164C19.5019 20.584 19.2439 21.13 19.1119 21.802C18.9919 22.474 18.9319 23.296 18.9319 24.268C18.9319 25.276 18.9919 26.122 19.1119 26.806C19.2319 27.49 19.4839 28.042 19.8679 28.462C20.2639 28.882 20.8399 29.092 21.5959 29.092C22.3519 29.092 22.9219 28.882 23.3059 28.462C23.7019 28.042 23.9599 27.49 24.0799 26.806C24.1999 26.122 24.2599 25.276 24.2599 24.268ZM28.4112 21.118C28.4832 20.002 28.9092 19.132 29.6892 18.508C30.4812 17.884 31.4892 17.572 32.7132 17.572C33.5532 17.572 34.2792 17.722 34.8912 18.022C35.5032 18.322 35.9652 18.73 36.2772 19.246C36.5892 19.762 36.7452 20.344 36.7452 20.992C36.7452 21.736 36.5472 22.372 36.1512 22.9C35.7552 23.428 35.2812 23.782 34.7292 23.962V24.034C35.4372 24.25 35.9892 24.646 36.3852 25.222C36.7812 25.786 36.9792 26.512 36.9792 27.4C36.9792 28.108 36.8172 28.738 36.4932 29.29C36.1692 29.842 35.6892 30.28 35.0532 30.604C34.4172 30.916 33.6552 31.072 32.7672 31.072C31.4712 31.072 30.4032 30.742 29.5632 30.082C28.7352 29.41 28.2912 28.45 28.2312 27.202H30.2112C30.2592 27.838 30.5052 28.36 30.9492 28.768C31.3932 29.164 31.9932 29.362 32.7492 29.362C33.4812 29.362 34.0452 29.164 34.4412 28.768C34.8372 28.36 35.0352 27.838 35.0352 27.202C35.0352 26.362 34.7652 25.768 34.2252 25.42C33.6972 25.06 32.8812 24.88 31.7772 24.88H31.3092V23.188H31.7952C32.7672 23.176 33.5052 23.014 34.0092 22.702C34.5252 22.39 34.7832 21.898 34.7832 21.226C34.7832 20.65 34.5972 20.194 34.2252 19.858C33.8532 19.51 33.3252 19.336 32.6412 19.336C31.9692 19.336 31.4472 19.51 31.0752 19.858C30.7032 20.194 30.4812 20.614 30.4092 21.118H28.4112Z" fill="white"/>
</svg>
