<svg width="53" height="50" viewBox="0 0 53 50" fill="none" xmlns="http://www.w3.org/2000/svg">
<mask id="mask0_1619_1854" style="mask-type:alpha" maskUnits="userSpaceOnUse" x="0" y="0" width="53" height="50">
<rect width="52.7855" height="50" rx="8" fill="#5C5E84"/>
</mask>
<g mask="url(#mask0_1619_1854)">
<rect x="-27.4482" y="27" width="52.7855" height="50" rx="8" fill="#FCD980"/>
<rect x="8.44531" y="-9" width="52.7855" height="50" rx="8" fill="#FB5304"/>
</g>
<path d="M16.9159 24.268C16.9159 22.192 17.2639 20.572 17.9599 19.408C18.6679 18.232 19.8799 17.644 21.5959 17.644C23.3119 17.644 24.5179 18.232 25.2139 19.408C25.9219 20.572 26.2759 22.192 26.2759 24.268C26.2759 26.368 25.9219 28.012 25.2139 29.2C24.5179 30.376 23.3119 30.964 21.5959 30.964C19.8799 30.964 18.6679 30.376 17.9599 29.2C17.2639 28.012 16.9159 26.368 16.9159 24.268ZM24.2599 24.268C24.2599 23.296 24.1939 22.474 24.0619 21.802C23.9419 21.13 23.6899 20.584 23.3059 20.164C22.9219 19.732 22.3519 19.516 21.5959 19.516C20.8399 19.516 20.2699 19.732 19.8859 20.164C19.5019 20.584 19.2439 21.13 19.1119 21.802C18.9919 22.474 18.9319 23.296 18.9319 24.268C18.9319 25.276 18.9919 26.122 19.1119 26.806C19.2319 27.49 19.4839 28.042 19.8679 28.462C20.2639 28.882 20.8399 29.092 21.5959 29.092C22.3519 29.092 22.9219 28.882 23.3059 28.462C23.7019 28.042 23.9599 27.49 24.0799 26.806C24.1999 26.122 24.2599 25.276 24.2599 24.268ZM29.5812 28.21C30.7332 27.214 31.6392 26.398 32.2992 25.762C32.9712 25.114 33.5292 24.442 33.9732 23.746C34.4172 23.05 34.6392 22.354 34.6392 21.658C34.6392 20.938 34.4652 20.374 34.1172 19.966C33.7812 19.558 33.2472 19.354 32.5152 19.354C31.8072 19.354 31.2552 19.582 30.8592 20.038C30.4752 20.482 30.2712 21.082 30.2472 21.838H28.2672C28.3032 20.47 28.7112 19.426 29.4912 18.706C30.2832 17.974 31.2852 17.608 32.4972 17.608C33.8052 17.608 34.8252 17.968 35.5572 18.688C36.3012 19.408 36.6732 20.368 36.6732 21.568C36.6732 22.432 36.4512 23.266 36.0072 24.07C35.5752 24.862 35.0532 25.576 34.4412 26.212C33.8412 26.836 33.0732 27.562 32.1372 28.39L31.3272 29.11H37.0332V30.82H28.2852V29.326L29.5812 28.21Z" fill="white"/>
</svg>
